<?xml version="1.0" encoding="UTF-8"?>
<svg version="1.1" xmlns="http://www.w3.org/2000/svg" width="400" height="400">
<path d="M0 0 C3.04052392 0.0214809 6.07868637 0.00002796 9.11914062 -0.02539062 C39.844705 -0.06714341 70.03469823 7.9587776 97.04101562 22.52148438 C97.6454248 22.84375 98.24983398 23.16601562 98.87255859 23.49804688 C113.24067968 31.21331626 125.77746524 40.84032759 138.04101562 51.52148438 C138.81445312 52.17117187 139.58789062 52.82085937 140.38476562 53.49023438 C145.09608657 57.47673671 149.07050325 61.8074896 153.04101562 66.52148438 C153.853125 67.43414062 154.66523438 68.34679687 155.50195312 69.28710938 C174.98933886 91.34722802 188.7111701 117.74901301 196.79101562 145.95898438 C197.07291748 146.93432129 197.35481934 147.9096582 197.64526367 148.91455078 C202.05738793 164.98474835 203.5567923 180.54308206 203.48706055 197.17871094 C203.4785623 200.25459137 203.50742254 203.3285986 203.5390625 206.40429688 C203.71052973 254.92685783 183.43151347 299.3552531 152.04101562 335.52148438 C150.9780353 336.81275578 149.91543415 338.10433962 148.85351562 339.39648438 C146.24993371 342.42166904 143.35132594 344.98527216 140.31445312 347.56835938 C136.75219388 350.62871955 133.31103762 353.82073613 129.84960938 356.99414062 C110.35892213 374.53304834 87.76168775 387.71893244 63.04101562 396.52148438 C62.08207901 396.88139969 61.1231424 397.241315 60.13514709 397.61213684 C48.77498339 401.40747212 37.52385613 401.1587756 25.66210938 401.15820312 C23.40071787 401.16854516 21.13932958 401.1796115 18.87794495 401.19136047 C14.15348677 401.21070543 9.42932406 401.21424513 4.70483398 401.20776367 C-1.29068547 401.20178548 -7.28464704 401.24593578 -13.27984715 401.30365276 C-17.9482333 401.34098967 -22.6162562 401.34552995 -27.28477287 401.34137917 C-29.4919558 401.34421483 -31.69915765 401.35799297 -33.90619087 401.38385582 C-49.21211898 401.54434584 -61.76708474 399.27027308 -75.95898438 393.52148438 C-76.70448107 393.22723761 -77.44997776 392.93299084 -78.21806526 392.6298275 C-125.06074804 374.11106482 -165.92222822 334.84822889 -186.06787109 288.65332031 C-186.40318848 287.86731445 -186.73850586 287.08130859 -187.08398438 286.27148438 C-187.38449707 285.57055664 -187.68500977 284.86962891 -187.99462891 284.14746094 C-188.61831873 282.6362769 -189.21777456 281.11492937 -189.7963562 279.58590698 C-190.64802497 277.34110243 -191.5348812 275.1095628 -192.44165039 272.88644409 C-197.35873762 260.18567928 -197.87509121 248.36245476 -197.82617188 234.85742188 C-197.83532733 232.60893128 -197.84594773 230.36044624 -197.85794067 228.11196899 C-197.87568807 223.42385987 -197.87109364 218.7364341 -197.85107422 214.04833984 C-197.82816204 208.11124725 -197.86846759 202.17654607 -197.92690849 196.23976707 C-197.96403941 191.60122276 -197.96296737 186.96322954 -197.95163345 182.32457352 C-197.95133167 180.13941734 -197.96302584 177.95421799 -197.9882164 175.769207 C-198.19184659 155.21041584 -192.82430344 136.93070854 -183.64648438 118.58398438 C-183.18918945 117.64852783 -182.73189453 116.71307129 -182.26074219 115.74926758 C-177.8269578 106.88396866 -172.5959441 98.65896492 -166.95898438 90.52148438 C-166.27578125 89.50183594 -165.59257812 88.4821875 -164.88867188 87.43164062 C-161.87635876 82.99141286 -158.78958577 79.29624609 -154.95898438 75.52148438 C-152.93725614 73.37472192 -150.9486279 71.19797259 -148.95898438 69.02148438 C-145.37267763 65.09839248 -141.73090516 61.26875209 -137.95898438 57.52148438 C-137.27320313 56.78929687 -136.58742187 56.05710938 -135.88085938 55.30273438 C-101.51409983 19.20527471 -49.23985435 -0.41165152 0 0 Z " fill="#1A6098" transform="translate(196.958984375,-0.521484375)"/>
<path d="M0 0 C3.04052392 0.0214809 6.07868637 0.00002796 9.11914062 -0.02539062 C39.844705 -0.06714341 70.03469823 7.9587776 97.04101562 22.52148438 C97.6454248 22.84375 98.24983398 23.16601562 98.87255859 23.49804688 C113.24067968 31.21331626 125.77746524 40.84032759 138.04101562 51.52148438 C138.81445312 52.17117187 139.58789062 52.82085937 140.38476562 53.49023438 C145.09608657 57.47673671 149.07050325 61.8074896 153.04101562 66.52148438 C153.853125 67.43414062 154.66523438 68.34679687 155.50195312 69.28710938 C174.98933886 91.34722802 188.7111701 117.74901301 196.79101562 145.95898438 C197.07291748 146.93432129 197.35481934 147.9096582 197.64526367 148.91455078 C202.05738793 164.98474835 203.5567923 180.54308206 203.48706055 197.17871094 C203.4785623 200.25459137 203.50742254 203.3285986 203.5390625 206.40429688 C203.69858517 251.54673307 186.03622907 295.10644343 157.29101562 329.58398438 C156.63758179 330.37059448 156.63758179 330.37059448 155.97094727 331.1730957 C152.93231683 334.72842565 149.68316649 337.61947821 146.04101562 340.52148438 C145.65240356 339.80788254 145.2637915 339.0942807 144.86340332 338.35905457 C142.82655191 335.18755113 140.55032238 332.78376542 137.8828125 330.12036133 C137.11397484 329.34867615 137.11397484 329.34867615 136.3296051 328.56140137 C134.64449611 326.87260611 132.95232766 325.19108851 131.25976562 323.50976562 C130.08260219 322.33379516 128.90580913 321.15745384 127.72937012 319.98075867 C125.2678123 317.52076193 122.80294047 315.06415233 120.33544922 312.61010742 C117.17278968 309.46446513 114.01678077 306.31225227 110.86299896 303.15771198 C108.43551912 300.73050399 106.00544234 298.30591043 103.57447815 295.88219261 C102.40967574 294.72057145 101.24547719 293.55834445 100.08189392 292.39550209 C98.45683395 290.77260984 96.82852386 289.15305268 95.19921875 287.53442383 C94.27338989 286.61240677 93.34756104 285.69038971 92.39367676 284.74043274 C90.05233095 282.4081539 90.05233095 282.4081539 87.04101562 280.52148438 C87.04101562 279.86148437 87.04101562 279.20148438 87.04101562 278.52148438 C87.84023438 278.37453125 88.63945312 278.22757812 89.46289062 278.07617188 C102.37926101 275.43832159 114.71670336 270.42941293 122.59960938 259.32617188 C129.36897014 247.79616275 130.6577588 235.66733301 129.04101562 222.52148438 C126.53278564 213.90277921 121.38210308 206.75985135 113.68945312 202.09570312 C108.34557805 199.29140955 102.818834 197.23808259 97.04101562 195.52148438 C98.39825552 192.80700458 99.83433158 192.63852995 102.60351562 191.45898438 C112.30017718 186.74243941 117.33797312 178.49612324 121.11132812 168.75976562 C123.53477748 160.31842313 123.2745056 151.01427695 119.60351562 143.02148438 C114.38395361 134.01254479 106.67693427 128.22815936 97.04101562 124.52148438 C89.21700551 122.51742726 81.41165259 122.19134645 73.37304688 122.10742188 C72.34223999 122.08977783 71.31143311 122.07213379 70.24938965 122.05395508 C66.4509147 121.99156345 62.65219425 121.9449132 58.85351562 121.89648438 C50.33539063 121.77273437 41.81726563 121.64898437 33.04101562 121.52148438 C33.04101562 155.84148437 33.04101562 190.16148437 33.04101562 225.52148438 C31.39101562 223.87148437 29.74101562 222.22148437 28.04101562 220.52148438 C26.68751072 219.20795313 25.33031621 217.89821177 23.96923828 216.5925293 C19.7491325 212.53295862 15.5569296 208.44576011 11.37353516 204.34838867 C9.56568064 202.5860158 7.74986399 200.83177449 5.92626953 199.08569336 C3.28946294 196.55794193 0.68272091 194.00230819 -1.91992188 191.43945312 C-2.7406015 190.66522507 -3.56128113 189.89099701 -4.40682983 189.0933075 C-9.79289373 183.71215995 -9.79289373 183.71215995 -10.26699829 180.31338501 C-9.77469747 175.90897073 -8.13376665 171.65423711 -6.58398438 167.52148438 C-5.95363281 165.81992187 -5.95363281 165.81992187 -5.31054688 164.08398438 C-4.64152344 162.32054687 -4.64152344 162.32054687 -3.95898438 160.52148438 C-3.46225075 159.20011016 -2.96617546 157.8784883 -2.47070312 156.55664062 C-2.09365234 155.55141357 -2.09365234 155.55141357 -1.70898438 154.52587891 C-0.99118116 152.60753112 -0.27718115 150.68781642 0.43554688 148.76757812 C3.83457543 139.62749296 7.38930823 130.56380745 11.04101562 121.52148438 C4.44101563 121.52148438 -2.15898437 121.52148438 -8.95898438 121.52148438 C-9.28898438 122.84148437 -9.61898437 124.16148438 -9.95898438 125.52148438 C-10.52762432 127.29709049 -11.11280439 129.06743466 -11.70898438 130.83398438 C-12.89425666 134.35101049 -14.0756757 137.86870655 -15.22851562 141.39648438 C-15.4434668 142.05092529 -15.65841797 142.70536621 -15.87988281 143.37963867 C-16.49241254 145.24543033 -17.10270743 147.11195524 -17.71289062 148.97851562 C-18.5857625 151.46031748 -19.48995485 153.82129866 -20.53710938 156.22460938 C-21.58642724 158.65764311 -22.47085185 160.91236948 -23.14648438 163.45898438 C-23.41460937 164.46960938 -23.68273437 165.48023438 -23.95898438 166.52148438 C-26.95898438 166.52148438 -26.95898438 166.52148438 -28.43254185 165.12613678 C-28.9574216 164.47466423 -29.48230135 163.82319168 -30.02308655 163.15197754 C-34.38200277 157.95635421 -39.13067726 153.21728951 -43.93334961 148.43359375 C-44.91980636 147.4474197 -45.90604172 146.46102415 -46.89207458 145.47442627 C-49.54636681 142.81984932 -52.20371182 140.16834814 -54.86165118 137.51742363 C-57.64745271 134.73791009 -60.43038738 131.95552906 -63.21363831 129.17346191 C-68.47421087 123.9159867 -73.73732536 118.66106391 -79.00137717 113.40707254 C-84.99857752 107.42108311 -90.99290926 101.43222455 -96.98701179 95.44313335 C-109.30783252 83.13274084 -121.63221818 70.82592346 -133.95898438 58.52148438 C-134.57773438 58.83085938 -135.19648438 59.14023437 -135.83398438 59.45898438 C-137.20898438 60.14648438 -138.58398438 60.83398438 -139.95898438 61.52148438 C-139.95898438 58.52148438 -139.95898438 58.52148438 -138.52539062 56.97851562 C-137.86410156 56.43582031 -137.2028125 55.893125 -136.52148438 55.33398438 C-133.57614049 52.87611029 -130.71130778 50.37760414 -127.89648438 47.77148438 C-93.06196381 16.78741168 -46.45918362 -0.38840475 0 0 Z " fill="#004E8C" transform="translate(196.958984375,-0.521484375)"/>
<path d="M0 0 C66.46554816 0 66.46554816 0 80.375 12.6875 C87.20994487 20.15531014 89.74349249 27.96276738 89.59423828 38.0078125 C88.96778084 49.70168475 83.05368697 59.5431589 74.5625 67.3125 C71.38775025 70.08941144 67.87394903 71.42548675 64 73 C64.96679688 73.32871094 65.93359375 73.65742188 66.9296875 73.99609375 C79.92894211 78.64764837 88.78554262 85.29590631 95 98 C98.25761518 107.77284555 97.14600898 122.09237129 93.3203125 131.49609375 C87.29568898 142.92148923 77.69301453 149.98870806 66 155 C44.54125987 159.95201695 22.02271555 158 0 158 C0 105.86 0 53.72 0 0 Z " fill="#FBFCFD" transform="translate(231,121)"/>
<path d="M0 0 C6.6 0 13.2 0 20 0 C23.74192614 8.98062274 26.89306347 18.14996318 30.07666016 27.33886719 C31.54210891 31.56239745 33.02156232 35.7810031 34.5 40 C35.07947025 41.6562349 35.65889718 43.31248495 36.23828125 44.96875 C37.44157271 48.40710995 38.64766204 51.84447366 39.85546875 55.28125 C42.6002123 63.09679095 45.32163758 70.91491896 47.91796875 78.78125 C49.34738575 83.03337856 50.8284544 87.26667516 52.3125 91.5 C52.60995117 92.34868652 52.90740234 93.19737305 53.21386719 94.07177734 C54.77135025 98.51068719 56.33445068 102.94756947 57.90234375 107.3828125 C58.21196045 108.26130859 58.52157715 109.13980469 58.84057617 110.04492188 C59.42599375 111.70577905 60.01325032 113.36598975 60.6027832 115.02539062 C62.03322473 119.08775928 63.40645597 123.16630668 64.703125 127.2734375 C65.07679199 128.45172119 65.07679199 128.45172119 65.45800781 129.65380859 C66.04024554 132.17421604 66.09478317 134.42201205 66 137 C66.66 137 67.32 137 68 137 C68.09023437 135.72769531 68.18046875 134.45539063 68.2734375 133.14453125 C68.89001662 127.64150891 70.64005338 122.82941294 72.625 117.6875 C73.35657287 115.73609065 74.08701862 113.78425843 74.81640625 111.83203125 C75.1839502 110.85572754 75.55149414 109.87942383 75.93017578 108.87353516 C77.53545668 104.56176972 79.05364342 100.22126614 80.5625 95.875 C80.84689941 95.0593457 81.13129883 94.24369141 81.42431641 93.40332031 C82.57549796 90.10061113 83.72334853 86.79675004 84.87060547 83.49267578 C88.32023513 73.56320635 91.84195143 63.66906192 95.50683594 53.81689453 C97.76364374 47.71890249 99.8521428 41.57878538 101.859375 35.39453125 C102.91337365 32.2578024 104.05071498 29.17061031 105.22363281 26.07739258 C106.80904703 21.83516316 108.27063435 17.54772197 109.75 13.26757812 C110.12125 12.20506836 110.12125 12.20506836 110.5 11.12109375 C110.7165625 10.4964624 110.933125 9.87183105 111.15625 9.22827148 C112.33626806 6.11194485 113.6873598 3.06282713 115 0 C121.6 0 128.2 0 135 0 C134.01 2.97 133.02 5.94 132 9 C131.53167901 10.60127936 131.07107772 12.20488226 130.625 13.8125 C129.51840669 17.55877942 128.16476113 21.09793186 126.625 24.6875 C124.12517031 30.5154162 122.13841509 36.42234469 120.2109375 42.45703125 C118.97858341 46.06266078 117.50766393 49.50206014 116 53 C115.30899447 54.99172182 114.64097297 56.99161804 114 59 C112.54490216 63.45348125 110.84586007 67.69299316 109 72 C108.05466964 74.80722016 107.1452024 77.62316174 106.2578125 80.44921875 C105.17167682 83.51535954 103.97379551 86.46758632 102.70288086 89.4597168 C100.1162604 95.64283182 97.77322754 101.89274694 95.49609375 108.1953125 C95.09093033 109.30881073 94.68576691 110.42230896 94.26832581 111.56954956 C92.98874796 115.08708197 91.71283172 118.60592611 90.4375 122.125 C89.15817446 125.65105798 87.87800475 129.17680261 86.59596252 132.70187378 C85.80289396 134.88284445 85.011399 137.06438824 84.2217865 139.24661255 C81.93165229 145.54900461 79.52194559 151.78659355 77 158 C70.07 158 63.14 158 56 158 C46.81557678 132.54894277 46.81557678 132.54894277 42.38671875 119.9140625 C39.14644859 110.72190876 35.75265215 101.58355214 32.39651489 92.43328857 C31.67152654 90.45644477 30.9469509 88.47945002 30.22241211 86.50244141 C28.112169 80.74598961 25.99976166 74.99041601 23.8671875 69.2421875 C21.06737287 61.69374665 18.33000443 54.14624236 15.828125 46.4921875 C14.87830866 43.63377796 13.83786265 40.82059074 12.76171875 38.0078125 C11.91850095 35.78517687 11.11559644 33.54994773 10.3125 31.3125 C8.91811968 27.44104405 7.46044571 23.59882765 5.96484375 19.765625 C5.60156982 18.82936279 5.2382959 17.89310059 4.86401367 16.9284668 C4.128846 15.03713799 3.38823133 13.14791628 2.6418457 11.26098633 C2.30113037 10.3820874 1.96041504 9.50318848 1.609375 8.59765625 C1.29967773 7.80883057 0.98998047 7.02000488 0.67089844 6.20727539 C0 4 0 4 0 0 Z " fill="#FAFBFC" transform="translate(73,121)"/>
<path d="M0 0 C6.868125 -0.061875 6.868125 -0.061875 13.875 -0.125 C15.29796387 -0.14320801 16.72092773 -0.16141602 18.18701172 -0.18017578 C30.22608333 -0.23235126 43.74403161 0.62575383 52.9375 9.375 C58.01094491 14.63542691 59.56432418 20.05373286 59.5 27.25 C59.49355469 28.00071777 59.48710937 28.75143555 59.48046875 29.52490234 C59.20215316 38.01535891 56.45872745 43.91645212 50.375 49.875 C40.04130505 57.78010772 29.20552307 57.51130739 16.8125 57.25 C8.4903125 57.12625 8.4903125 57.12625 0 57 C0 38.19 0 19.38 0 0 Z " fill="#004E8C" transform="translate(249,205)"/>
<path d="M0 0 C37.31428571 0 37.31428571 0 45.828125 7.640625 C51.15780868 13.5912427 52.51368479 18.92888054 52.38671875 26.859375 C51.76478706 31.91021418 49.69151509 35.74693534 47 40 C46.443125 40.928125 45.88625 41.85625 45.3125 42.8125 C33.02969762 54.43136712 15.67700773 52 0 52 C0 34.84 0 17.68 0 0 Z " fill="#07528F" transform="translate(249,137)"/>
<path d="M0 0 C0.33 0 0.66 0 1 0 C1.08451416 0.5762915 1.16902832 1.15258301 1.25610352 1.74633789 C4.54988366 23.62506216 10.19750071 44.12572584 20 64 C20.38559082 64.78890625 20.77118164 65.5778125 21.16845703 66.390625 C26.56281851 77.32296549 32.55959215 87.34591708 40 97 C40.66644531 97.87785156 41.33289062 98.75570312 42.01953125 99.66015625 C47.3022208 106.44911166 53.10722051 112.74281031 59 119 C59.61746094 119.66 60.23492187 120.32 60.87109375 121 C91.30673142 152.53044478 134.26784603 169.985845 177 176 C177 176.33 177 176.66 177 177 C157.12775187 177.76658524 139.50139161 178.26675627 121 170 C119.618497 169.44784744 118.2344333 168.90205058 116.84765625 168.36328125 C70.79083215 149.99661591 30.77815356 110.43078806 10.90087891 65.17089844 C9.52151635 61.91583915 8.22373432 58.63183665 6.94042969 55.33789062 C6.07808475 53.19411722 5.13777965 51.11043271 4.1640625 49.015625 C-2.44507834 33.69100938 -0.5312828 16.33354036 0 0 Z " fill="#FCFDFD" transform="translate(0,223)"/>
<path d="M0 0 C0.99 0.495 0.99 0.495 2 1 C-16.77996164 16.24491004 -47.43238682 35.23648674 -72.421875 35.09765625 C-73.44667969 35.09443359 -74.47148437 35.09121094 -75.52734375 35.08789062 C-76.59082031 35.07951172 -77.65429688 35.07113281 -78.75 35.0625 C-79.82894531 35.05798828 -80.90789062 35.05347656 -82.01953125 35.04882812 C-84.67974383 35.03705727 -87.33984365 35.02061399 -90 35 C-90 34.67 -90 34.34 -90 34 C-89.3922876 33.90501221 -88.7845752 33.81002441 -88.15844727 33.7121582 C-57.13374759 28.78829845 -25.44192541 19.19549407 0 0 Z " fill="#F9FAFC" transform="translate(313,365)"/>
<path d="M0 0 C0 4.01808311 -1.91854703 6.40106181 -4 9.6875 C-19.57806013 35.04577081 -28.85609914 62.55649391 -33 92 C-33.33 92 -33.66 92 -34 92 C-36.43551314 58.80208237 -20.96977197 25.39726443 0 0 Z " fill="#FCFCFD" transform="translate(34,85)"/>
<path d="M0 0 C9.57 0 19.14 0 29 0 C29 0.33 29 0.66 29 1 C19.76 1 10.52 1 1 1 C-1.182964 24.23464689 -1.182964 24.23464689 5.18359375 45.63671875 C8.39722892 49.05581448 12.03321041 51.52779436 16 54 C16 54.66 16 55.32 16 56 C22.27 56 28.54 56 35 56 C35 56.33 35 56.66 35 57 C23.45 57 11.9 57 0 57 C0 38.19 0 19.38 0 0 Z " fill="#3B77A7" transform="translate(249,205)"/>
</svg>
